<svg xmlns="http://www.w3.org/2000/svg" width="96" height="96" style="width:100%;height:100%;transform:translate3d(0,0,0);content-visibility:visible" viewBox="0 0 96 96"><defs><clipPath id="a"><path d="M0 0h96v96H0z"/></clipPath><clipPath id="b"><path d="M0 0h96v96H0z"/></clipPath></defs><g clip-path="url(#a)"><g clip-path="url(#b)" style="display:block" transform="matrix(2.7 0 0 2.7 -79.6 -81.351)"><path fill="oklab(0.700621 0.0017004 -0.0100388)" d="M-6.555 1.641a2.626 2.626 0 0 0 1.856 3.216l6.34 1.698a2.626 2.626 0 0 0 3.216-1.856l1.698-6.34a2.627 2.627 0 0 0-1.856-3.216l-6.34-1.699a2.626 2.626 0 0 0-3.216 1.857z" style="display:block" transform="translate(39.202 39.828)"/><path fill="oklab(0.700621 0.0017004 -0.0100388)" d="M-6.478 2.404c-1.074 1.968.351 4.368 2.593 4.368h7.771c2.242 0 3.666-2.4 2.593-4.368L2.593-4.719c-1.119-2.053-4.066-2.053-5.186 0z" style="display:block" transform="translate(55.245 39.441)"/><path fill="oklab(0.700621 0.0017004 -0.0100388)" d="M-.941-6.268a1.314 1.314 0 0 1 1.882 0l1.116 1.135c.213.216.491.353.789.388l1.566.183c.729.085 1.254.756 1.173 1.501l-.174 1.598c-.033.305.036.612.195.872L6.442.772c.39.635.203 1.472-.419 1.872l-1.332.858c-.254.163-.447.41-.547.699l-.523 1.517a1.326 1.326 0 0 1-1.695.833L.438 6.022c-.284-.1-.593-.1-.876 0l-1.489.529a1.327 1.327 0 0 1-1.695-.833l-.523-1.517a1.35 1.35 0 0 0-.546-.699l-1.333-.858A1.377 1.377 0 0 1-6.443.772l.837-1.363a1.38 1.38 0 0 0 .194-.872l-.173-1.598c-.081-.745.443-1.416 1.173-1.501l1.565-.183c.299-.035.577-.172.79-.388z" style="display:block" transform="translate(39.202 56.092)"/><path fill="oklab(0.700621 0.0017004 -0.0100388)" d="M1.513-5.592c-.52-1.405-2.507-1.405-3.027 0l-.677 1.831a2.66 2.66 0 0 1-1.571 1.57l-1.83.678c-1.405.519-1.405 2.506 0 3.026l1.83.678a2.66 2.66 0 0 1 1.571 1.57l.677 1.831c.52 1.405 2.507 1.405 3.027 0l.677-1.831a2.66 2.66 0 0 1 1.571-1.57l1.831-.678c1.405-.52 1.405-2.507 0-3.026l-1.831-.678a2.66 2.66 0 0 1-1.571-1.57z" style="display:block" transform="matrix(-1 0 0 -1 55.447 56.073)"/></g></g></svg>