<svg xmlns="http://www.w3.org/2000/svg" xmlns:xlink="http://www.w3.org/1999/xlink" width="24" height="24" style="width:100%;height:100%;transform:translate3d(0,0,0);content-visibility:visible" viewBox="0 0 24 24"><defs><clipPath id="d"><path d="M0 0h24v24H0z"/></clipPath><clipPath id="e"><path d="M0 0h600v600H0z"/></clipPath><clipPath id="a"><path d="M0 0h600v600H0z"/></clipPath><filter id="b" width="100%" height="100%" x="0%" y="0%" filterUnits="objectBoundingBox"><feComponentTransfer in="SourceGraphic"><feFuncA tableValues="1.0 0.0" type="table"/></feComponentTransfer></filter><mask id="f" mask-type="alpha"><g filter="url(#b)"><path fill="#fff" d="M0 0h600v600H0z" opacity="0"/><use xlink:href="#c"/></g></mask><g id="c" clip-path="url(#a)" style="display:block"><path fill="#fff" d="M3.03 3.719h1.574V.895h2.76V-.529h-2.76v-1.767H8v-1.423H3.03z" style="display:block" transform="matrix(25 0 0 25 300.006 299.993)"/><path fill="#fff" d="M1.52 3.719H-.054v-7.438H1.52z" style="display:block" transform="matrix(25 0 0 25 299.996 299.993)"/><path fill="#fff" d="M-4.82 3.87a2.9 2.9 0 0 1-1.66-.485q-.723-.485-1.121-1.359Q-8 1.143-8 0q0-1.132.42-2.005a3.27 3.27 0 0 1 1.24-1.369q.819-.496 1.951-.496.96 0 1.714.409.765.41 1.154 1.154l-1.218.873q-.55-1.014-1.639-1.013-.992 0-1.52.646-.528.637-.528 1.801 0 1.175.528 1.811t1.52.636q.443 0 .809-.162.377-.172.582-.463V.895h-1.714V-.507h3.245v4.226h-1.272l-.205-.712q-.636.863-1.887.863" style="display:block" transform="matrix(25 0 0 25 299.995 299.993)"/></g></defs><g clip-path="url(#d)"><g clip-path="url(#e)" style="display:block" transform="scale(.04)"><g mask="url(#f)" style="display:block"><path fill="oklab(0.700621 0.0017004 -0.0100388)" d="M125 50c-41.425 0-75 33.575-75 75v350c0 41.425 33.575 75 75 75h350c41.425 0 75-33.575 75-75V125c0-41.425-33.575-75-75-75z"/></g></g></g></svg>