<svg xmlns="http://www.w3.org/2000/svg" width="24" height="24" style="width:100%;height:100%;transform:translate3d(0,0,0);content-visibility:visible" viewBox="0 0 24 24"><defs><clipPath id="a"><path d="M0 0h24v24H0z"/></clipPath><clipPath id="b"><path d="M0 0h600v600H0z"/></clipPath></defs><g clip-path="url(#a)"><g clip-path="url(#b)" style="display:block" transform="scale(.04)"><path fill="oklab(0.700621 0.0017004 -0.0100388)" d="M-7 10a2 2 0 0 1-2-2V2.5a.5.5 0 0 1 .5-.5h7a.5.5 0 0 1 .5.5v7a.5.5 0 0 1-.5.5zm8-.5a.5.5 0 0 0 .5.5H7a2 2 0 0 0 2-2V2.5a.5.5 0 0 0-.5-.5h-7a.5.5 0 0 0-.5.5zM-10-2a2 2 0 0 1 2-2H8a2 2 0 0 1 2 2v1.5a.5.5 0 0 1-.5.5h-19a.5.5 0 0 1-.5-.5z" style="display:block" transform="matrix(25 0 0 25 300 300)"/><g style="display:block"><path fill="none" stroke="oklab(0.700621 0.0017004 -0.0100388)" stroke-linejoin="round" stroke-width="50" d="M475 150c0-41.425-33.575-75-75-75h-2.225c-35.425 0-66.3 24.1-74.9 58.475L300 225h100c41.425 0 75-33.575 75-75z"/></g><g style="display:block"><path fill="none" stroke="oklab(0.700621 0.0017004 -0.0100388)" stroke-linejoin="round" stroke-width="50" d="M125 150c0-41.425 33.575-75 75-75h2.225c35.425 0 66.3 24.1 74.9 58.475L300 225H200c-41.425 0-75-33.575-75-75z"/></g></g></g></svg>