<svg xmlns="http://www.w3.org/2000/svg" width="24" height="24" fill="#e3e3e3" viewBox="0 -960 960 960"><path d="M40-160v-112q0-34 17.5-62.5T104-378q62-31 126-46.5T360-440t130 15.5T616-378q29 15 46.5 43.5T680-272v112zm720 0v-120q0-44-24.5-84.5T666-434q51 6 96 20.5t84 35.5q36 20 55 44.5t19 53.5v120zM247-527q-47-47-47-113t47-113 113-47 113 47 47 113-47 113-113 47-113-47m466 0q-47 47-113 47-11 0-28-2.5t-28-5.5q27-32 41.5-71t14.5-81-14.5-81-41.5-71q14-5 28-6.5t28-1.5q66 0 113 47t47 113-47 113"/></svg>