<svg xmlns="http://www.w3.org/2000/svg" width="24" height="24" style="width:100%;height:100%;transform:translate3d(0,0,0);content-visibility:visible" viewBox="0 0 24 24"><defs><clipPath id="g"><path d="M0 0h24v24H0z"/></clipPath><clipPath id="h"><path d="M0 0h600v600H0z"/></clipPath><clipPath id="a"><path d="M0 0h600v600H0z"/></clipPath><filter id="c" width="100%" height="100%" x="0%" y="0%" filterUnits="objectBoundingBox"><feComponentTransfer in="SourceGraphic"><feFuncA tableValues="1.0 0.0" type="table"/></feComponentTransfer></filter><filter id="e" width="100%" height="100%" x="0%" y="0%" filterUnits="objectBoundingBox"><feComponentTransfer in="SourceGraphic"><feFuncA tableValues="1.0 0.0" type="table"/></feComponentTransfer></filter></defs><g clip-path="url(#g)"><g clip-path="url(#h)" style="display:block" transform="scale(.04)"><path fill="oklab(0.700621 0.0017004 -0.0100388)" d="M-6-10H6a4 4 0 0 1 4 4v7.5a.5.5 0 0 1-.5.5H7a5 5 0 0 0-5 5v2.5a.5.5 0 0 1-.5.5H-6a4 4 0 0 1-4-4V-6a4 4 0 0 1 4-4M9.659 4c.033 0 .055.034.041.064-.145.299-.34.576-.579.815L4.879 9.121a3 3 0 0 1-.815.579A.045.045 0 0 1 4 9.659V7a3 3 0 0 1 3-3h2.659M-5.5-2a1.5 1.5 0 1 0-.001-3.001A1.5 1.5 0 0 0-5.5-2M7-3.5a1.5 1.5 0 1 0-3.001.001A1.5 1.5 0 0 0 7-3.5M-2.911-.556A1.001 1.001 0 0 0-4.573.556 5.5 5.5 0 0 0 0 3 5.5 5.5 0 0 0 4.573.556 1 1 0 1 0 2.911-.556 3.5 3.5 0 0 1 0 1 3.5 3.5 0 0 1-2.911-.556" style="display:block" transform="matrix(25 0 0 25 300 300)"/></g></g></svg>